<?xml version="1.0" encoding="UTF-8" standalone="no"?>
<!-- Created with Inkscape (http://www.inkscape.org/) -->

<svg
   width="36.175674mm"
   height="7.4083333mm"
   viewBox="0 0 36.175674 7.4083333"
   version="1.1"
   id="svg1"
   xmlns:inkscape="http://www.inkscape.org/namespaces/inkscape"
   xmlns:sodipodi="http://sodipodi.sourceforge.net/DTD/sodipodi-0.dtd"
   xmlns="http://www.w3.org/2000/svg"
   xmlns:svg="http://www.w3.org/2000/svg">
  <sodipodi:namedview
     id="namedview1"
     pagecolor="#ffffff"
     bordercolor="#000000"
     borderopacity="0.25"
     inkscape:showpageshadow="2"
     inkscape:pageopacity="0.0"
     inkscape:pagecheckerboard="0"
     inkscape:deskcolor="#d1d1d1"
     inkscape:document-units="mm" />
  <defs
     id="defs1">
    <linearGradient
       id="paint0_linear_0_1"
       x1="8.5"
       y1="4.61262e-07"
       x2="24"
       y2="28"
       gradientUnits="userSpaceOnUse">
      <stop
         stop-color="#FF6038"
         id="stop7" />
      <stop
         offset="1"
         stop-color="#FF4415"
         id="stop8" />
    </linearGradient>
  </defs>
  <g
     inkscape:label="Layer 1"
     inkscape:groupmode="layer"
     id="layer1"
     transform="translate(-46.588224,-48.984713)">
    <g
       id="Logo_2"
       transform="matrix(0.26458333,0,0,0.26458333,46.588226,48.984711)">
      <rect
         id="Rectangle 1363"
         width="30"
         height="28"
         rx="8"
         fill="url(#paint0_linear_0_1)"
         x="0"
         y="0"
         style="fill:url(#paint0_linear_0_1)" />
      <path
         id="Ellipse 1165"
         d="m 7,12 c 0,1.8565 0.7375,3.637 2.05025,4.9497 C 10.363,18.2625 12.1435,19 14,19 15.8565,19 17.637,18.2625 18.9497,16.9497 20.2625,15.637 21,13.8565 21,12 Z"
         fill="#fffefe" />
    </g>
    <g
       id="Besnik"
       transform="matrix(0.26458333,0,0,0.26458333,47.309735,48.780915)">
      <path
         d="M 42,25.5496 V 4.23107 h 7.735 c 1.4391,0 2.6783,0.2302 3.7176,0.6906 1.0593,0.44038 1.8688,1.08094 2.4285,1.92167 0.5796,0.82072 0.8694,1.79156 0.8694,2.91254 0,1.02092 -0.2199,1.92162 -0.6596,2.70232 -0.4397,0.7607 -1.0593,1.3612 -1.8588,1.8016 1.0793,0.4204 1.9188,1.0909 2.5184,2.0117 0.5996,0.9008 0.8994,1.9718 0.8994,3.2128 0,1.2411 -0.3198,2.312 -0.9594,3.2128 -0.6395,0.9008 -1.539,1.6014 -2.6982,2.1019 -1.1593,0.5004 -2.5284,0.7506 -4.1074,0.7506 z M 46.3172,7.92428 v 4.89422 h 2.9381 c 0.9794,0 1.7289,-0.2001 2.2486,-0.6005 0.5396,-0.4204 0.8095,-1.0309 0.8095,-1.8316 0,-0.80067 -0.2699,-1.4112 -0.8095,-1.83157 C 50.9842,8.13447 50.2347,7.92428 49.2553,7.92428 Z m 0,13.93212 h 3.3579 c 1.1192,0 1.9787,-0.2402 2.5783,-0.7206 0.6196,-0.4804 0.9294,-1.171 0.9294,-2.0718 0,-0.9008 -0.3098,-1.5914 -0.9294,-2.0718 -0.5996,-0.4805 -1.4591,-0.7207 -2.5783,-0.7207 h -3.3579 z"
         fill="#101010"
         id="path2" />
      <path
         d="m 67.9926,26 c -1.1793,0 -2.2686,-0.2002 -3.2679,-0.6005 -0.9794,-0.4204 -1.8289,-1.0009 -2.5484,-1.7415 -0.7195,-0.7607 -1.2792,-1.6515 -1.6789,-2.6724 -0.3998,-1.0409 -0.5996,-2.1718 -0.5996,-3.3929 0,-1.181 0.1998,-2.282 0.5996,-3.3029 0.3997,-1.0209 0.9494,-1.9016 1.6489,-2.6423 0.7196,-0.7606 1.559,-1.3512 2.5184,-1.77152 0.9594,-0.42037 1.9987,-0.63055 3.118,-0.63055 1.1593,0 2.2086,0.20017 3.148,0.60052 0.9594,0.40035 1.7788,0.97085 2.4584,1.71145 0.6796,0.7407 1.1992,1.6215 1.559,2.6423 0.3797,1.0209 0.5696,2.1619 0.5696,3.423 v 1.0509 H 64.155 c 0.1799,1.1811 0.6096,2.1119 1.2892,2.7925 0.6796,0.6605 1.539,0.9908 2.5783,0.9908 0.7196,0 1.3692,-0.1701 1.9488,-0.5104 0.5996,-0.3403 1.0893,-0.8307 1.469,-1.4713 l 3.7476,1.201 c -0.3597,0.9008 -0.8994,1.6715 -1.6189,2.3121 -0.7196,0.6405 -1.559,1.1409 -2.5184,1.5013 C 70.0912,25.8299 69.0719,26 67.9926,26 Z M 67.7827,12.4883 c -0.9194,0 -1.6989,0.3002 -2.3385,0.9007 -0.6196,0.6006 -1.0293,1.4213 -1.2292,2.4622 h 6.9855 C 71.0406,14.8103 70.6509,13.9896 70.0313,13.389 69.4316,12.7885 68.6821,12.4883 67.7827,12.4883 Z"
         fill="#101010"
         id="path3" />
      <path
         d="m 83.9948,26 c -1.1193,0 -2.1387,-0.1802 -3.0581,-0.5405 -0.8994,-0.3603 -1.6689,-0.8707 -2.3085,-1.5313 -0.6196,-0.6606 -1.0493,-1.4413 -1.2891,-2.342 l 3.7775,-0.8107 c 0.1999,0.6205 0.5597,1.1109 1.0793,1.4712 0.5197,0.3603 1.1393,0.5405 1.8588,0.5405 0.6796,0 1.2392,-0.1501 1.679,-0.4504 0.4397,-0.3002 0.6595,-0.7106 0.6595,-1.2311 0,-0.4403 -0.1998,-0.8007 -0.5996,-1.0809 -0.3797,-0.3003 -1.0193,-0.5305 -1.9188,-0.6906 l -0.8394,-0.1501 c -1.7189,-0.3003 -3.0281,-0.8608 -3.9275,-1.6815 -0.8794,-0.8207 -1.3191,-1.8616 -1.3191,-3.1227 0,-1.0009 0.2598,-1.8816 0.7795,-2.6423 0.5196,-0.7807 1.2392,-1.3912 2.1586,-1.83159 0.9194,-0.44039 1.9787,-0.66058 3.1779,-0.66058 1.0593,0 2.0187,0.18016 2.8782,0.54047 0.8794,0.3403 1.6089,0.8307 2.1886,1.4713 0.5796,0.6405 0.9793,1.4112 1.1992,2.312 l -3.7476,0.7807 c -0.1999,-0.6006 -0.5297,-1.071 -0.9894,-1.4113 -0.4397,-0.3403 -0.9593,-0.5104 -1.559,-0.5104 -0.6196,0 -1.1292,0.1501 -1.529,0.4504 -0.3997,0.3003 -0.5996,0.6806 -0.5996,1.141 0,0.4003 0.1899,0.7406 0.5696,1.0209 0.3998,0.2602 1.0694,0.4704 2.0088,0.6305 l 0.8394,0.1501 c 1.6989,0.3003 2.9981,0.8708 3.8975,1.7115 0.8994,0.8207 1.3491,1.8717 1.3491,3.1528 0,0.7807 -0.1599,1.4913 -0.4797,2.1318 -0.2998,0.6406 -0.7395,1.2011 -1.3191,1.6815 -0.5796,0.4804 -1.2592,0.8507 -2.0387,1.111 C 85.7936,25.8699 84.9342,26 83.9948,26 Z"
         fill="#101010"
         id="path4" />
      <path
         d="M 93.0253,25.5496 V 9.69582 h 3.8675 l 0.1199,2.04178 c 0.4597,-0.7607 1.0893,-1.3612 1.8888,-1.80157 0.8195,-0.4604 1.7485,-0.6906 2.7885,-0.6906 1.159,0 2.168,0.28024 3.028,0.84077 0.879,0.5404 1.559,1.3211 2.038,2.342 0.48,1.0209 0.72,2.2219 0.72,3.6031 v 9.5183 h -4.197 v -8.9778 c 0,-1.101 -0.25,-1.9617 -0.75,-2.5822 -0.5,-0.6406 -1.189,-0.9609 -2.069,-0.9609 -0.6391,0 -1.1987,0.1502 -1.6784,0.4504 -0.4797,0.2803 -0.8595,0.6806 -1.1393,1.2011 -0.2798,0.5204 -0.4197,1.1109 -0.4197,1.7715 v 9.0979 z"
         fill="#101010"
         id="path5" />
      <path
         d="m 115.323,5.40209 c 0,0.4604 -0.109,0.87076 -0.329,1.23107 -0.2,0.36031 -0.49,0.65056 -0.87,0.87076 -0.36,0.20017 -0.759,0.30026 -1.199,0.30026 -0.44,0 -0.849,-0.10009 -1.229,-0.30026 -0.36,-0.2202 -0.65,-0.51045 -0.87,-0.87076 -0.2,-0.36031 -0.299,-0.77067 -0.299,-1.23107 0,-0.4604 0.099,-0.87076 0.299,-1.23107 0.22,-0.36031 0.51,-0.64056 0.87,-0.84073 C 112.076,3.1101 112.485,3 112.925,3 c 0.44,0 0.839,0.1101 1.199,0.33029 0.38,0.20017 0.67,0.48042 0.87,0.84073 0.22,0.36031 0.329,0.77067 0.329,1.23107 z M 110.826,25.5496 V 9.69582 h 4.198 V 25.5496 Z"
         fill="#101010"
         id="path6" />
      <path
         d="M 118.38,25.5496 V 3.15013 h 4.107 V 16.1514 l 5.877,-6.45558 h 4.916 l -6.595,7.02608 7.315,8.8277 h -5.307 l -6.206,-7.8969 v 7.8969 z"
         fill="#101010"
         id="path7" />
    </g>
  </g>
</svg>
